<?xml version="1.0" encoding="UTF-8"?>
<svg version="1.1" xmlns="http://www.w3.org/2000/svg" width="512" height="512">
<path d="M0 0 C1.16913773 -0.00307895 1.16913773 -0.00307895 2.3618944 -0.0062201 C4.9833 -0.01189117 7.60465307 -0.01043272 10.22606373 -0.00901413 C12.12066086 -0.0115977 14.01525745 -0.01461084 15.90985328 -0.01801753 C21.12397707 -0.02609168 26.3380871 -0.02787733 31.55221641 -0.028615 C37.17268962 -0.03046482 42.79315568 -0.03801179 48.41362476 -0.04475021 C60.70699552 -0.0583369 73.00036302 -0.06435874 85.29374003 -0.06876087 C92.96830327 -0.07152266 100.64286525 -0.07575989 108.31742764 -0.08026505 C129.56191635 -0.09245802 150.80640373 -0.10279274 172.05089569 -0.10614014 C173.42454211 -0.10636177 174.79818852 -0.10658355 176.17183493 -0.10680549 C177.54878542 -0.10702613 178.92573591 -0.10724661 180.30268639 -0.10746694 C183.06505342 -0.10790949 185.82742045 -0.1083566 188.58978748 -0.10880661 C189.2746931 -0.108916 189.95959872 -0.10902539 190.66525905 -0.1091381 C212.8727934 -0.11276864 235.0802951 -0.1286889 257.28781694 -0.15199697 C280.77055162 -0.17659837 304.25326101 -0.19030639 327.73601085 -0.19150805 C340.53539365 -0.19242514 353.3347337 -0.1981859 366.13410473 -0.21632767 C377.03253876 -0.23172052 387.93091684 -0.2368539 398.82935967 -0.22858956 C404.39003213 -0.22468023 409.95059187 -0.22562661 415.5112505 -0.23964691 C420.60338729 -0.25236853 425.69532647 -0.2512035 430.78746293 -0.2390562 C432.62799254 -0.2370962 434.46853606 -0.24019159 436.30904611 -0.24890056 C449.09573884 -0.30556628 460.48336015 -0.17474775 470.2287035 9.13142776 C475.65345154 15.17098058 478.47440615 20.78985206 478.4859724 29.06077671 C478.4924213 30.23062683 478.49887019 31.40047696 478.5055145 32.60577708 C478.5024173 33.88173769 478.49932009 35.15769829 478.49612904 36.47232437 C478.4998672 37.84877432 478.50446938 39.22522216 478.50985968 40.60166663 C478.5220846 44.37888508 478.52182982 48.15601492 478.51947093 51.93324864 C478.51906264 56.00903189 478.5301031 60.08478678 478.53958607 64.16055679 C478.55619415 72.14380929 478.56169552 80.12703225 478.56281082 88.11030058 C478.56376137 94.59988293 478.56787199 101.08945554 478.57421207 107.57903481 C478.59182381 125.98073438 478.60105103 144.38241063 478.59955113 162.78411869 C478.59943126 164.27196808 478.59943126 164.27196808 478.59930897 165.78987503 C478.59922721 166.78298656 478.59914544 167.77609809 478.59906121 168.79930391 C478.59824828 184.89453346 478.61738774 200.98966944 478.6455857 217.08487193 C478.6743149 233.61380339 478.68812598 250.14268923 478.68639815 266.6716463 C478.68573427 275.95040793 478.6912257 285.22907145 478.71275425 294.50781059 C478.73096649 302.40781889 478.73531303 310.30768461 478.7217354 318.20770482 C478.715206 322.23721654 478.71508737 326.26645471 478.7324419 330.2959404 C478.74817916 333.98793305 478.74530277 337.67943543 478.72787364 341.37141617 C478.72335639 343.33290818 478.73845597 345.29441544 478.75435293 347.25584823 C478.67467649 357.45773835 476.26457121 364.80902534 469.2912035 372.33845901 C461.95440684 378.71646974 453.89727551 380.2859905 444.457407 380.26285553 C443.67798185 380.26490816 442.89855669 380.2669608 442.0955126 380.26907563 C439.474107 380.2747467 436.85275393 380.27328825 434.23134327 380.27186966 C432.33674614 380.27445323 430.44214955 380.27746637 428.54755372 380.28087306 C423.33342992 380.28894721 418.11931989 380.29073286 412.90519059 380.29147053 C407.28471737 380.29332035 401.66425132 380.30086732 396.04378223 380.30760574 C383.75041148 380.32119242 371.45704398 380.32721427 359.16366696 380.3316164 C351.48910373 380.33437819 343.81454175 380.33861542 336.13997936 380.34312057 C314.89549065 380.35531355 293.65100327 380.36564827 272.40651131 380.36899567 C271.03286489 380.3692173 269.65921848 380.36943908 268.28557206 380.36966102 C266.90862158 380.36988166 265.53167109 380.37010214 264.1547206 380.37032247 C261.39235357 380.37076502 258.62998654 380.37121213 255.86761951 380.37166214 C254.84026109 380.37182623 254.84026109 380.37182623 253.79214795 380.37199363 C231.5846136 380.37562417 209.3771119 380.39154443 187.16959006 380.4148525 C163.68685538 380.4394539 140.20414599 380.45316192 116.72139615 380.45436358 C103.92201335 380.45528067 91.1226733 380.46104143 78.32330227 380.4791832 C67.42486824 380.49457605 56.52649016 380.49970943 45.62804732 380.49144509 C40.06737487 380.48753576 34.50681512 380.48848214 28.9461565 380.50250244 C23.8540197 380.51522406 18.76208053 380.51405903 13.66994407 380.50191173 C11.82941446 380.49995173 9.98887093 380.50304712 8.14836089 380.51175609 C-4.82574678 380.56925236 -15.75770758 380.23680746 -25.7712965 371.13142776 C-33.57454618 363.11142115 -34.35477911 354.15904617 -34.27923107 343.42976761 C-34.28384606 342.05072434 -34.29020299 340.671686 -34.29814005 339.29265785 C-34.31477464 335.52210657 -34.30661405 331.7519624 -34.29419518 327.98141003 C-34.2851228 323.9077109 -34.29912523 319.83408042 -34.31011486 315.76039505 C-34.32788138 307.78753646 -34.32406844 299.81482869 -34.3124643 291.84196424 C-34.30342289 285.3610266 -34.30220904 278.88013115 -34.30655956 272.399189 C-34.30717249 271.47603626 -34.30778543 270.55288352 -34.30841693 269.60175645 C-34.30969586 267.72626383 -34.31099272 265.85077122 -34.3123073 263.97527862 C-34.32370763 246.3976114 -34.31060798 228.8200277 -34.28910583 211.24237418 C-34.27123535 196.16693877 -34.27433961 181.09162658 -34.29278088 166.01619339 C-34.31419725 148.50050771 -34.32260904 130.98489517 -34.31033182 113.46919823 C-34.30905765 111.60068767 -34.30780017 109.73217711 -34.30655956 107.86366653 C-34.30563391 106.48472924 -34.30563391 106.48472924 -34.30468956 105.07793462 C-34.30123896 98.60638824 -34.30705874 92.13488834 -34.31647778 85.66334915 C-34.32770766 77.77437736 -34.32463693 69.88556473 -34.3033548 61.99661112 C-34.29285766 57.97316512 -34.28869959 53.94998428 -34.30195141 49.92654037 C-34.3139091 46.24020082 -34.30725783 42.55437111 -34.2860412 38.86807752 C-34.27948754 36.90972471 -34.29248104 34.95133624 -34.30627012 32.99302101 C-34.21585356 22.80090057 -31.80074355 15.44689753 -24.8337965 7.92439651 C-17.49699984 1.54638579 -9.43986851 -0.02313497 0 0 Z " fill="#D874BB" transform="translate(33.77129650115967,65.86857223510742)"/>
<path d="M0 0 C1.16913773 -0.00307895 1.16913773 -0.00307895 2.3618944 -0.0062201 C4.9833 -0.01189117 7.60465307 -0.01043272 10.22606373 -0.00901413 C12.12066086 -0.0115977 14.01525745 -0.01461084 15.90985328 -0.01801753 C21.12397707 -0.02609168 26.3380871 -0.02787733 31.55221641 -0.028615 C37.17268962 -0.03046482 42.79315568 -0.03801179 48.41362476 -0.04475021 C60.70699552 -0.0583369 73.00036302 -0.06435874 85.29374003 -0.06876087 C92.96830327 -0.07152266 100.64286525 -0.07575989 108.31742764 -0.08026505 C129.56191635 -0.09245802 150.80640373 -0.10279274 172.05089569 -0.10614014 C173.42454211 -0.10636177 174.79818852 -0.10658355 176.17183493 -0.10680549 C177.54878542 -0.10702613 178.92573591 -0.10724661 180.30268639 -0.10746694 C183.06505342 -0.10790949 185.82742045 -0.1083566 188.58978748 -0.10880661 C189.2746931 -0.108916 189.95959872 -0.10902539 190.66525905 -0.1091381 C212.8727934 -0.11276864 235.0802951 -0.1286889 257.28781694 -0.15199697 C280.77055162 -0.17659837 304.25326101 -0.19030639 327.73601085 -0.19150805 C340.53539365 -0.19242514 353.3347337 -0.1981859 366.13410473 -0.21632767 C377.03253876 -0.23172052 387.93091684 -0.2368539 398.82935967 -0.22858956 C404.39003213 -0.22468023 409.95059187 -0.22562661 415.5112505 -0.23964691 C420.60338729 -0.25236853 425.69532647 -0.2512035 430.78746293 -0.2390562 C432.62799254 -0.2370962 434.46853606 -0.24019159 436.30904611 -0.24890056 C449.09573884 -0.30556628 460.48336015 -0.17474775 470.2287035 9.13142776 C476.69625675 16.33197038 478.54438029 22.70382143 478.424016 32.24861526 C478.42200184 33.00924271 478.41998768 33.76987015 478.41791248 34.55354691 C478.41178495 36.21443986 478.40059802 37.87532039 478.38484859 39.53614998 C478.3447374 44.00545694 478.31627451 48.47480862 478.28775501 52.94420242 C478.27918555 54.27182649 478.27918555 54.27182649 478.27044296 55.62627125 C478.256457 57.79465629 478.24257023 59.96304196 478.2287035 62.13142776 C428.52179019 63.408636 378.80461505 63.34566754 329.0848175 63.42850888 C316.47451445 63.44970017 303.8642236 63.47607704 291.25393098 63.50267302 C268.7786497 63.54994354 246.30336252 63.59332075 223.82806873 63.63411331 C202.03835072 63.67367114 180.24863768 63.71514123 158.45892811 63.75911331 C157.44560369 63.76115711 157.44560369 63.76115711 156.41180807 63.76324219 C149.62563332 63.77693142 142.83945865 63.7906586 136.05328404 63.80441353 C79.44510106 63.91914939 22.83690736 64.02754387 -33.7712965 64.13142776 C-33.87076976 58.45724374 -33.94304899 52.78357626 -33.99102306 47.10872269 C-34.01103894 45.18154931 -34.03826033 43.2544359 -34.07305431 41.32747269 C-34.12201691 38.54452524 -34.14436567 35.76238621 -34.1619215 32.97908401 C-34.18256664 32.12871063 -34.20321178 31.27833725 -34.22448254 30.40219498 C-34.22776559 21.4897346 -30.84958522 14.41989252 -24.8337965 7.92439651 C-17.49699984 1.54638579 -9.43986851 -0.02313497 0 0 Z " fill="#EFE6E3" transform="translate(33.77129650115967,65.86857223510742)"/>
<path d="M0 0 C0.33 0 0.66 0 1 0 C1.09275657 10.32700287 1.16379377 20.65390633 1.20724869 30.98124123 C1.22810691 35.77686929 1.25639228 40.57221196 1.30175781 45.36767578 C1.34527858 49.99720432 1.36915039 54.62645865 1.37950897 59.25617599 C1.38688917 61.02080984 1.40130111 62.78542899 1.42292023 64.54994583 C1.45203762 67.02532409 1.45595261 69.49957518 1.45410156 71.97509766 C1.47567322 73.0648288 1.47567322 73.0648288 1.49768066 74.17657471 C1.4566465 79.26142909 0.11284954 82.04114109 -3 86 C-3.55042969 86.74765625 -4.10085938 87.4953125 -4.66796875 88.265625 C-5.16941406 88.92046875 -5.67085938 89.5753125 -6.1875 90.25 C-10.80038939 96.27595171 -10.62495333 101.48295576 -10 109 C-8.14213948 115.68829787 -4.0029358 119.52862224 1.796875 123.109375 C7.61842176 125.46276624 15.68600344 124.99882059 21.4375 122.5625 C26.76422424 119.4251497 30.08528442 113.74414674 32 108 C32.6982861 97.70028002 29.39179867 91.95709845 22.7421875 84.19921875 C19.56561088 80.18932494 19.86239611 76.28255707 19.88647461 71.4074707 C19.88632858 70.63650055 19.88618256 69.8655304 19.8860321 69.07119751 C19.88672881 66.52269681 19.8945099 63.97426918 19.90234375 61.42578125 C19.90420879 59.65886983 19.90563229 57.8919579 19.90663147 56.12504578 C19.91044988 51.47421847 19.92027442 46.82342239 19.93133545 42.17260742 C19.94156409 37.42692487 19.94613221 32.68123727 19.95117188 27.93554688 C19.96189727 18.6236842 19.97896561 9.3118447 20 0 C22.2875696 2.98307107 24.07242811 5.89936708 25.75 9.26953125 C26.26981445 10.31036865 26.78962891 11.35120605 27.32519531 12.42358398 C27.87788086 13.54192627 28.43056641 14.66026855 29 15.8125 C29.58104492 16.98176025 30.16208984 18.15102051 30.76074219 19.35571289 C34.75925072 27.41655341 38.67530558 35.51567484 42.53515625 43.64379883 C45.44579462 49.76861656 48.39078565 55.87577496 51.359375 61.97265625 C51.93199066 63.14899879 51.93199066 63.14899879 52.51617432 64.34910583 C54.05532836 67.51002011 55.5949828 70.67068373 57.13781738 73.82980347 C58.21825012 76.04211953 59.296735 78.25537679 60.375 80.46875 C60.85715973 81.45337975 60.85715973 81.45337975 61.34906006 82.457901 C65.83642105 91.67906487 69.15078852 99.68416987 66.0625 110.0625 C63.67736125 115.59014383 59.10985881 119.71946599 55 124 C48.33083057 131.09078358 45.28893 136.14554426 44 146 C43.00556885 145.99476318 42.0111377 145.98952637 40.98657227 145.98413086 C37.30966079 145.96607959 33.63275325 145.95456754 29.95581055 145.94506836 C28.36205386 145.94002843 26.76830181 145.9331965 25.17456055 145.92456055 C22.88849747 145.91248001 20.60249533 145.90676845 18.31640625 145.90234375 C17.59973282 145.89718246 16.88305939 145.89202118 16.14466858 145.88670349 C14.42936328 145.88650737 12.71418734 145.93807993 11 146 C10.67 146.33 10.34 146.66 10 147 C7.55169574 147.08843793 5.13179401 147.11528752 2.68359375 147.09765625 C1.95253922 147.0962413 1.22148468 147.09482635 0.46827698 147.09336853 C-1.87535632 147.08775408 -4.21889539 147.07519922 -6.5625 147.0625 C-8.14778508 147.05748686 -9.73307166 147.05292363 -11.31835938 147.04882812 C-15.2122761 147.03777997 -19.10612205 147.02050572 -23 147 C-23.18175781 145.87960327 -23.18175781 145.87960327 -23.3671875 144.73657227 C-23.53476562 143.75229248 -23.70234375 142.7680127 -23.875 141.75390625 C-24.03742188 140.7801001 -24.19984375 139.80629395 -24.3671875 138.80297852 C-26.16842492 130.82458082 -31.9380771 125.96609521 -37.62109375 120.4609375 C-43.91377666 113.95126552 -46.4380478 107.77384499 -46.32617188 98.77441406 C-45.72893613 93.694334 -43.49474769 89.41857203 -41.25 84.875 C-40.75628906 83.83802979 -40.26257813 82.80105957 -39.75390625 81.73266602 C-38.19349093 78.47598687 -36.60263537 75.23609064 -35 72 C-34.49791016 70.98437988 -33.99582031 69.96875977 -33.47851562 68.92236328 C-30.99468022 63.91491863 -28.48715641 58.91981807 -25.96875 53.9296875 C-21.66206377 45.36958785 -17.56649671 36.70948184 -13.45458984 28.0546875 C-10.75432103 22.38403234 -8.03220469 16.7238521 -5.3125 11.0625 C-4.28775277 8.92838909 -3.26301247 6.79427485 -2.23828125 4.66015625 C-1.49221172 3.1067592 -0.74612801 1.55336896 0 0 Z " fill="#F0E6E2" transform="translate(321,218)"/>
<path d="M0 0 C62.37 0 124.74 0 189 0 C189 4.29 189 8.58 189 13 C176.46 13.33 163.92 13.66 151 14 C156.445 16.97 156.445 16.97 162 20 C188.14560414 37.29536389 207.47360351 63.40906696 215 94 C215.94601111 98.64434313 216.49823948 103.28345115 217 108 C212.71 108 208.42 108 204 108 C203.69707031 106.76765625 203.39414062 105.5353125 203.08203125 104.265625 C200.71908887 94.84438197 198.25402462 85.77465023 194 77 C193.71785645 76.4126709 193.43571289 75.8253418 193.14501953 75.22021484 C188.72166084 66.12762521 183.68753977 58.61776147 177 51 C175.98292969 49.71029297 175.98292969 49.71029297 174.9453125 48.39453125 C159.81692434 29.7726398 133.35986689 17.77824851 110 15 C105.28687213 14.72352231 100.59489618 14.62830814 95.87451172 14.62939453 C93.76577151 14.62503262 91.65915259 14.58859737 89.55078125 14.55078125 C62.82007193 14.3298888 38.37055308 26.20910467 19 44 C18.17628906 44.74121094 17.35257813 45.48242188 16.50390625 46.24609375 C0.82531176 61.0551648 -10.5349612 83.71448424 -13.640625 104.98828125 C-14 107 -14 107 -15 108 C-17.18639453 108.07258946 -19.37500389 108.08373783 -21.5625 108.0625 C-22.76003906 108.05347656 -23.95757812 108.04445313 -25.19140625 108.03515625 C-26.58166016 108.01775391 -26.58166016 108.01775391 -28 108 C-27.00561358 87.11788511 -17.28471977 64.94659312 -4 49 C-3.19175781 47.97003906 -2.38351563 46.94007813 -1.55078125 45.87890625 C9.32229224 32.24666159 22.40533617 21.79733192 38 14 C25.46 13.67 12.92 13.34 0 13 C0 8.71 0 4.42 0 0 Z " fill="#62D6E6" transform="translate(237,198)"/>
<path d="M0 0 C0.33 0 0.66 0 1 0 C1.09275657 10.32700287 1.16379377 20.65390633 1.20724869 30.98124123 C1.22810691 35.77686929 1.25639228 40.57221196 1.30175781 45.36767578 C1.34527858 49.99720432 1.36915039 54.62645865 1.37950897 59.25617599 C1.38688917 61.02080984 1.40130111 62.78542899 1.42292023 64.54994583 C1.45203762 67.02532409 1.45595261 69.49957518 1.45410156 71.97509766 C1.47567322 73.0648288 1.47567322 73.0648288 1.49768066 74.17657471 C1.4566465 79.26142909 0.11284954 82.04114109 -3 86 C-3.55042969 86.74765625 -4.10085938 87.4953125 -4.66796875 88.265625 C-5.16941406 88.92046875 -5.67085938 89.5753125 -6.1875 90.25 C-10.80038939 96.27595171 -10.62495333 101.48295576 -10 109 C-8.42328924 114.67615875 -5.10105415 118.98866341 0 122 C3.29452304 123.50423582 6.59178137 124.75646077 10 126 C10 131.61 10 137.22 10 143 C-0.89 143 -11.78 143 -23 143 C-24.32 139.37 -25.64 135.74 -27 132 C-29.27631293 129.09881686 -31.43282817 126.59719723 -34 124 C-41.81029831 115.90380058 -46.45933033 110.25341859 -46.32397461 98.77441406 C-45.73069179 93.69373137 -43.4946957 89.41846678 -41.25 84.875 C-40.75628906 83.83802979 -40.26257813 82.80105957 -39.75390625 81.73266602 C-38.19349093 78.47598687 -36.60263537 75.23609064 -35 72 C-34.49791016 70.98437988 -33.99582031 69.96875977 -33.47851562 68.92236328 C-30.99468022 63.91491863 -28.48715641 58.91981807 -25.96875 53.9296875 C-21.66206377 45.36958785 -17.56649671 36.70948184 -13.45458984 28.0546875 C-10.75432103 22.38403234 -8.03220469 16.7238521 -5.3125 11.0625 C-4.28775277 8.92838909 -3.26301247 6.79427485 -2.23828125 4.66015625 C-1.49221172 3.1067592 -0.74612801 1.55336896 0 0 Z " fill="#F5EEEC" transform="translate(321,218)"/>
<path d="M0 0 C2.0807543 -0.162371 4.16514919 -0.27856417 6.25 -0.375 C7.99023438 -0.47941406 7.99023438 -0.47941406 9.765625 -0.5859375 C13 0 13 0 15.17100525 2.54675293 C17.2483242 6.46885035 17.55782809 9.51346816 17.49829102 13.83789062 C17.50380981 14.5996611 17.50932861 15.36143158 17.51501465 16.14628601 C17.52430184 17.79132008 17.52446701 19.43642607 17.51642036 21.08146667 C17.50375028 23.68834154 17.51511589 26.29416383 17.53245544 28.90100098 C17.5591201 33.49528241 17.5647525 38.08930434 17.56335449 42.68365479 C17.56112358 50.03658169 17.57530709 57.38918761 17.61894035 64.74198914 C17.62875631 67.30460601 17.6200737 69.86671509 17.61024475 72.42932129 C17.61639092 74.00692067 17.62330331 75.58451731 17.63110352 77.16210938 C17.62338425 77.86981979 17.61566498 78.57753021 17.60771179 79.3066864 C17.67523114 85.94416028 20.00568027 90.28226084 24.5625 94.9375 C29.04826156 99.92483406 30.59444348 105.0580358 30.37109375 111.82421875 C29.26275345 118.32259291 26.06741808 123.56759531 20.875 127.5625 C14.7072381 131.79833648 8.28325644 131.75849298 1 131 C-5.3101944 128.67255151 -10.20968128 123.73300499 -13.1015625 117.703125 C-15.0466916 111.85082355 -15.35440505 105.00783459 -12.796875 99.328125 C-11.31001216 97.09032133 -9.74378185 95.04222862 -8 93 C-7.236875 92.030625 -6.47375 91.06125 -5.6875 90.0625 C-5.130625 89.381875 -4.57375 88.70125 -4 88 C-2.48837905 84.97675809 -2.83826865 81.84178181 -2.82641602 78.52441406 C-2.819729 77.75347412 -2.81304199 76.98253418 -2.80615234 76.18823242 C-2.79208627 74.51092367 -2.78019719 72.8335956 -2.77020454 71.15625763 C-2.75380727 68.49958834 -2.73056814 65.84306129 -2.70530701 63.1864624 C-2.63450889 55.63186733 -2.57450062 48.07721298 -2.52319336 40.52246094 C-2.49134356 35.90352544 -2.45004837 31.28475139 -2.40299797 26.66594696 C-2.38700866 24.90696884 -2.37467295 23.1479535 -2.36609077 21.38892365 C-2.3538925 18.92350452 -2.32972251 16.45846233 -2.30297852 13.99316406 C-2.30238937 13.26981873 -2.30180023 12.54647339 -2.30119324 11.8012085 C-2.23967174 7.5060518 -1.56834703 3.99722982 0 0 Z " fill="#465259" transform="translate(324,212)"/>
<path d="M0 0 C0.80610718 -0.00287018 1.61221436 -0.00574036 2.44274902 -0.00869751 C4.14396875 -0.01073542 5.84521205 -0.00522464 7.54638672 0.00732422 C10.14734391 0.02338251 12.74674727 0.00746707 15.34765625 -0.01171875 C17.00260759 -0.00973627 18.65755796 -0.00589249 20.3125 0 C21.47670471 -0.00910904 21.47670471 -0.00910904 22.66442871 -0.0184021 C25.70836693 0.02116185 28.29640897 0.25869547 31.14453125 1.36474609 C33.61536992 4.68872641 33.22540192 8.3568018 33.1875 12.3359375 C33.1913269 13.21241943 33.19515381 14.08890137 33.19909668 14.99194336 C33.20181799 16.84457549 33.19444146 18.69724589 33.17773438 20.54980469 C33.15632691 23.38823979 33.17752761 26.22414378 33.203125 29.0625 C33.20048176 30.86198476 33.19535686 32.66146795 33.1875 34.4609375 C33.19559692 35.31099365 33.20369385 36.1610498 33.21203613 37.03686523 C33.12056874 42.7744717 33.12056874 42.7744717 31.14453125 45.42993164 C27.55700729 46.82629227 24.10698117 46.8463834 20.3125 46.83203125 C19.50639282 46.8372731 18.70028564 46.84251495 17.86975098 46.84791565 C16.16855011 46.85432778 14.46730486 46.85300929 12.76611328 46.84448242 C10.16488726 46.83596578 7.56585326 46.86475275 4.96484375 46.89648438 C3.30989649 46.89809639 1.65494535 46.89751885 0 46.89453125 C-0.77613647 46.90576523 -1.55227295 46.91699921 -2.35192871 46.92857361 C-5.65949036 46.88592656 -7.9672442 46.6223757 -10.83203125 44.91845703 C-13.07279874 41.18312079 -12.91713405 37.86479517 -12.875 33.58203125 C-12.8788269 32.72916031 -12.88265381 31.87628937 -12.88659668 30.99757385 C-12.88931431 29.19799618 -12.88196345 27.39837892 -12.86523438 25.59887695 C-12.84379495 22.841718 -12.86505324 20.08715684 -12.890625 17.33007812 C-12.88798221 15.58072341 -12.88285825 13.83137031 -12.875 12.08203125 C-12.88309692 11.25698593 -12.89119385 10.43194061 -12.89953613 9.58189392 C-12.80815714 4.01832203 -12.80815714 4.01832203 -10.83203125 1.38061523 C-7.24385563 -0.03571429 -3.79954509 -0.02972863 0 0 Z " fill="#FED168" transform="translate(438.34375,181.6015625)"/>
<path d="M0 0 C0.73689056 -0.00525696 1.47378113 -0.01051392 2.23300171 -0.01593018 C4.66987273 -0.02913875 7.10609103 -0.02038943 9.54296875 -0.01025391 C11.23543422 -0.0122744 12.92789884 -0.01518564 14.62036133 -0.01895142 C18.16789029 -0.02337592 21.71519268 -0.01693976 25.26269531 -0.00292969 C29.81264784 0.01416239 34.36206952 0.00432187 38.91200256 -0.01364708 C42.40698251 -0.02448158 45.90183635 -0.02104014 49.39682007 -0.0132637 C51.07457543 -0.01126077 52.75234219 -0.01372425 54.43008423 -0.02070236 C56.774011 -0.02831152 59.11707507 -0.01672105 61.4609375 0 C62.15609467 -0.00607269 62.85125183 -0.01214539 63.56747437 -0.0184021 C66.36540785 0.01862334 68.29427003 0.09712398 70.65551758 1.67269897 C72.5794326 4.74302134 72.24232878 8.25261433 72.23046875 11.76318359 C72.25882812 12.51857422 72.2871875 13.27396484 72.31640625 14.05224609 C72.32027344 15.15826172 72.32027344 15.15826172 72.32421875 16.28662109 C72.33130859 16.9535498 72.33839844 17.62047852 72.34570312 18.30761719 C71.35179266 21.66876997 69.39779656 23.18112788 66.73046875 25.38818359 C63.38475037 26.01637268 63.38475037 26.01637268 59.52514648 26.01928711 C58.46567307 26.03002007 58.46567307 26.03002007 57.38479614 26.04096985 C55.0605513 26.05781735 52.73824608 26.03848255 50.4140625 26.01708984 C48.79411154 26.01791883 47.17416066 26.02037933 45.55421448 26.0243988 C42.16389563 26.02725394 38.77423848 26.01258263 35.3840332 25.98510742 C31.04031004 25.95099708 26.69776767 25.95705414 22.35398769 25.97577 C19.010749 25.98634165 15.66778478 25.97740129 12.32457161 25.96238518 C10.72301104 25.9572059 9.12142179 25.95768211 7.51986504 25.96393013 C5.28141563 25.96938576 3.04465353 25.94900081 0.80639648 25.92163086 C-1.10291405 25.91233299 -1.10291405 25.91233299 -3.05079651 25.90284729 C-6.81220161 25.30141263 -7.99687342 24.38481685 -10.26953125 21.38818359 C-10.77124023 19.3293457 -10.77124023 19.3293457 -10.765625 17.16552734 C-10.76626953 16.37984375 -10.76691406 15.59416016 -10.76757812 14.78466797 C-10.74759766 13.97320312 -10.72761719 13.16173828 -10.70703125 12.32568359 C-10.71412109 11.51035156 -10.72121094 10.69501953 -10.72851562 9.85498047 C-10.66574617 3.97879409 -10.66574617 3.97879409 -9.19862366 1.79185486 C-6.31683723 -0.305028 -3.43031394 -0.02996624 0 0 Z " fill="#424C53" transform="translate(301.26953125,372.61181640625)"/>
<path d="M0 0 C0.88022827 0.00404846 1.76045654 0.00809692 2.6673584 0.01226807 C4.0210553 0.00939789 4.0210553 0.00939789 5.40209961 0.00646973 C7.31197386 0.00510748 9.22185736 0.00880669 11.13171387 0.01715088 C14.0617749 0.02784986 16.99122278 0.01725696 19.92126465 0.00445557 C21.77413059 0.00577715 23.62699615 0.00833953 25.4798584 0.01226807 C26.80020081 0.00619537 26.80020081 0.00619537 28.1472168 0 C34.3436918 0.04797647 34.3436918 0.04797647 36.5736084 2.27789307 C36.78597732 5.25577722 36.87756489 8.13825354 36.87438965 11.11773682 C36.87867477 11.9956337 36.8829599 12.87353058 36.88737488 13.7780304 C36.8931234 15.63661842 36.89361461 17.49522894 36.88928223 19.3538208 C36.88612475 22.20064639 36.90956577 25.04643064 36.93493652 27.89312744 C36.93720968 29.69716259 36.93791294 31.50120053 36.93688965 33.30523682 C36.9460994 34.15843002 36.95530914 35.01162323 36.96479797 35.89067078 C36.91834014 41.81387548 36.91834014 41.81387548 35.29240417 44.00242615 C32.25728974 46.25469376 28.49340978 45.70301044 24.8548584 45.67633057 C24.00057251 45.67920074 23.14628662 45.68207092 22.26611328 45.68502808 C20.46056454 45.68706887 18.65499371 45.68153789 16.8494873 45.66900635 C14.08384828 45.65295251 11.31967065 45.66885406 8.55407715 45.68804932 C6.80016767 45.68606689 5.0462591 45.68222322 3.2923584 45.67633057 C2.46417603 45.68240326 1.63599365 45.68847595 0.78271484 45.69473267 C-4.95958956 45.62429289 -4.95958956 45.62429289 -7.14518738 44.00242615 C-9.43994636 40.91362289 -8.82965812 37.00948201 -8.78967285 33.30523682 C-8.79017136 32.42638321 -8.79066986 31.5475296 -8.79118347 30.64204407 C-8.78884378 28.78520444 -8.7791214 26.9283616 -8.76257324 25.07159424 C-8.73895265 22.2227559 -8.74201641 19.37485148 -8.74865723 16.52593994 C-8.74308144 14.72319996 -8.73597219 12.92046394 -8.72717285 11.11773682 C-8.72808426 10.26251938 -8.72899567 9.40730194 -8.72993469 8.52616882 C-8.63982463 1.04855729 -7.44525032 0.05764516 0 0 Z " fill="#FED168" transform="translate(434.4263916015625,305.72210693359375)"/>
<path d="M0 0 C5.49923749 -0.07411371 10.99818479 -0.12858464 16.49780273 -0.16479492 C18.36894799 -0.17988873 20.24005783 -0.20036589 22.11108398 -0.22631836 C24.79940526 -0.26267593 27.48725913 -0.27972015 30.17578125 -0.29296875 C31.43217155 -0.31619453 31.43217155 -0.31619453 32.71394348 -0.33988953 C38.53781786 -0.34158012 38.53781786 -0.34158012 40.72177124 1.27249146 C43.01065182 4.365882 42.40327631 8.26750466 42.36328125 11.97265625 C42.36402901 13.29093666 42.36402901 13.29093666 42.36479187 14.635849 C42.36245218 16.49268863 42.3527298 18.34953147 42.33618164 20.20629883 C42.31256105 23.05513717 42.31562481 25.90304158 42.32226562 28.75195312 C42.31668984 30.5546931 42.30958059 32.35742913 42.30078125 34.16015625 C42.30214836 35.44298241 42.30214836 35.44298241 42.30354309 36.75172424 C42.2310314 42.7689686 42.2310314 42.7689686 40 45 C37.02211584 45.21236892 34.13963953 45.30395649 31.16015625 45.30078125 C29.84331093 45.30720894 29.84331093 45.30720894 28.49986267 45.31376648 C26.64127465 45.319515 24.78266413 45.32000621 22.92407227 45.31567383 C20.07724668 45.31251636 17.23146243 45.33595737 14.38476562 45.36132812 C12.58073048 45.36360128 10.77669254 45.36430454 8.97265625 45.36328125 C8.11946304 45.372491 7.26626984 45.38170074 6.38722229 45.39118958 C0.46592037 45.34474667 0.46592037 45.34474667 -1.72750854 43.72177124 C-3.99014823 40.66025917 -3.36064819 36.83687569 -3.29296875 33.17578125 C-3.28872391 32.31438034 -3.28447906 31.45297943 -3.28010559 30.56547546 C-3.26331248 27.81416569 -3.22565956 25.06358838 -3.1875 22.3125 C-3.17245396 20.4472762 -3.15876541 18.58204093 -3.14648438 16.71679688 C-3.11340693 12.14424902 -3.0616206 7.5722487 -3 3 C-2.01 2.67 -1.02 2.34 0 2 C0 1.34 0 0.68 0 0 Z " fill="#FDD26B" transform="translate(195,182)"/>
<path d="M0 0 C0.87885361 -0.0004985 1.75770721 -0.00099701 2.66319275 -0.00151062 C4.52003238 0.00082907 6.37687522 0.01055145 8.23364258 0.02709961 C11.08248092 0.0507202 13.93038533 0.04765644 16.77929688 0.04101562 C18.58203685 0.04659141 20.38477288 0.05370066 22.1875 0.0625 C23.47032616 0.06113289 23.47032616 0.06113289 24.77906799 0.05973816 C30.79631235 0.13224985 30.79631235 0.13224985 33.02734375 2.36328125 C33.25197156 5.34101548 33.35552553 8.22294677 33.36328125 11.203125 C33.36993805 12.08102188 33.37659485 12.95891876 33.38345337 13.86341858 C33.39358803 15.72199403 33.39827014 17.58060593 33.39794922 19.43920898 C33.40232144 22.2862531 33.43862856 25.13174612 33.4765625 27.97851562 C33.48243064 29.78254677 33.48640005 31.58658529 33.48828125 33.390625 C33.50265228 34.24381821 33.51702332 35.09701141 33.53182983 35.97605896 C33.48714681 41.74291205 33.48714681 41.74291205 31.52001953 44.39697266 C27.93003416 45.78866336 24.47905532 45.81123086 20.68359375 45.796875 C19.87748657 45.80211685 19.07137939 45.8073587 18.24084473 45.8127594 C16.53964386 45.81917153 14.83839861 45.81785304 13.13720703 45.80932617 C10.53598101 45.80080953 7.93694701 45.8295965 5.3359375 45.86132812 C3.68099024 45.86294014 2.0260391 45.8623626 0.37109375 45.859375 C-0.40504272 45.87060898 -1.1811792 45.88184296 -1.98083496 45.89341736 C-5.29730616 45.85065543 -7.59643392 45.58891876 -10.46313477 43.86962891 C-12.63707621 40.26010556 -12.5261061 36.85595584 -12.46875 32.765625 C-12.47020523 31.9349501 -12.47166046 31.10427521 -12.47315979 30.24842834 C-12.47150263 28.49590541 -12.45996173 26.74336764 -12.43920898 24.9909668 C-12.41021803 22.30650183 -12.41861 19.62400776 -12.43164062 16.93945312 C-12.42540405 15.23566748 -12.41701374 13.53188806 -12.40625 11.828125 C-12.40918564 11.02495346 -12.41212128 10.22178192 -12.41514587 9.39427185 C-12.32074878 3.83016482 -12.32074878 3.83016482 -10.69619751 1.6512146 C-7.6116843 -0.65371858 -3.70567857 -0.04000074 0 0 Z " fill="#FED169" transform="translate(203.97265625,305.63671875)"/>
<path d="M0 0 C1.23043785 -0.01073296 1.23043785 -0.01073296 2.48573303 -0.02168274 C5.18442284 -0.03852599 7.8814411 -0.01919374 10.58007812 0.00219727 C12.46285133 0.00136816 14.34562446 -0.00109279 16.22839355 -0.00511169 C20.16924903 -0.0079667 24.10953522 0.00670237 28.05029297 0.03417969 C33.09436544 0.06826195 38.13742025 0.06224142 43.18154144 0.04351711 C47.0678552 0.03293385 50.95393335 0.04189699 54.84022522 0.05690193 C56.69970499 0.06207447 58.55920947 0.06161324 60.41868591 0.05535698 C63.020545 0.04988869 65.62096166 0.07033051 68.22265625 0.09765625 C69.36837852 0.08786743 69.36837852 0.08786743 70.5372467 0.07788086 C75.682627 0.1694785 78.65372613 1.36596742 82.61132812 4.63110352 C83.8382651 7.27981295 83.86440045 9.73802671 83.61132812 12.63110352 C82.44190408 15.46234069 81.51823105 16.99960279 79.00914001 18.74674988 C75.5219328 20.03289096 72.10198852 19.91752436 68.43383789 19.90576172 C67.61223175 19.91087265 66.79062561 19.91598358 65.94412231 19.92124939 C63.23025208 19.93514079 60.51663592 19.93418899 57.80273438 19.93188477 C55.9147075 19.9357719 54.02668149 19.9401066 52.13865662 19.94487 C48.18184575 19.95233119 44.22512412 19.95204161 40.26831055 19.94677734 C35.19960103 19.94098233 30.13125687 19.95791498 25.06260777 19.98112202 C21.16352709 19.99585891 17.26453442 19.99673112 13.36543083 19.99361229 C11.49673679 19.99412551 9.62803783 19.99936332 7.7593708 20.00942421 C5.14541045 20.02177067 2.53216198 20.01500788 -0.08178711 20.00341797 C-1.23761543 20.01488358 -1.23761543 20.01488358 -2.41679382 20.02658081 C-6.92274982 19.98245632 -9.79201272 19.39131178 -13.38867188 16.63110352 C-15.44297769 14.01653248 -15.38867188 12.56755922 -15.38867188 9.19360352 C-13.17021336 1.29034507 -7.49258706 -0.1146938 0 0 Z " fill="#C066AC" transform="translate(58.388671875,280.368896484375)"/>
<path d="M0 0 C62.37 0 124.74 0 189 0 C189 2.97 189 5.94 189 9 C126.96 9 64.92 9 1 9 C0.67 10.32 0.34 11.64 0 13 C0 8.71 0 4.42 0 0 Z " fill="#8DD9E8" transform="translate(237,198)"/>
<path d="M0 0 C6.41814824 -0.23090464 12.8352026 -0.38690782 19.2565918 -0.49438477 C21.43408212 -0.53924997 23.6113076 -0.60036854 25.7878418 -0.67895508 C40.44642776 -1.19441443 50.3544185 -0.25950154 62 9 C62.9472998 9.70560059 63.89459961 10.41120117 64.87060547 11.13818359 C67.33629879 13.0027598 69.66458937 14.97521048 72 17 C73.28583984 18.051875 73.28583984 18.051875 74.59765625 19.125 C96.86831263 38.09511306 110.92458164 66.0910674 114 95 C109.71 95 105.42 95 101 95 C100.54560547 93.15148437 100.54560547 93.15148437 100.08203125 91.265625 C97.71908887 81.84438197 95.25402462 72.77465023 91 64 C90.71785645 63.4126709 90.43571289 62.8253418 90.14501953 62.22021484 C85.72166084 53.12762521 80.68753977 45.61776147 74 38 C73.32195312 37.14019531 72.64390625 36.28039062 71.9453125 35.39453125 C54.48151679 13.89793131 26.30467099 4.6320257 0 1 C0 0.67 0 0.34 0 0 Z " fill="#62D7E6" transform="translate(340,211)"/>
<path d="M0 0 C0.8037355 -0.00428513 1.60747101 -0.00857025 2.43556213 -0.01298523 C4.13256897 -0.01871867 5.82960037 -0.01923605 7.52661133 -0.01489258 C10.11647669 -0.01173391 12.70519776 -0.03519844 15.29492188 -0.06054688 C16.94661315 -0.06282018 18.59830748 -0.06352322 20.25 -0.0625 C21.40646278 -0.07631462 21.40646278 -0.07631462 22.58628845 -0.09040833 C27.14199259 -0.05140169 30.05605074 0.50538215 33.69140625 3.30078125 C36.23585542 6.42351433 35.7737998 9.49137887 35.46875 13.30078125 C34.24705793 16.44402918 32.52620261 17.50014993 29.69140625 19.30078125 C26.74002398 19.87955252 23.8480593 19.86196529 20.84765625 19.83203125 C19.57758728 19.83777161 19.57758728 19.83777161 18.28186035 19.84362793 C16.49665127 19.84634264 14.71140212 19.83901231 12.92626953 19.82226562 C10.19994086 19.8008483 7.4762471 19.82208078 4.75 19.84765625 C3.01171296 19.84501289 1.27342755 19.83988775 -0.46484375 19.83203125 C-1.68222229 19.84417664 -1.68222229 19.84417664 -2.92419434 19.85656738 C-6.91064233 19.79080244 -8.86356417 19.58399176 -12.31054688 17.39038086 C-14.95562109 14.6241064 -15.20451609 12.96012984 -15.4453125 9.265625 C-15.23604589 6.25816487 -14.24501091 4.57106344 -12.30859375 2.30078125 C-8.54594307 -0.32886725 -4.41128832 -0.00520114 0 0 Z " fill="#BB4B94" transform="translate(106.30859375,376.69921875)"/>
<path d="M0 0 C0.80893707 -0.0033284 1.61787415 -0.0066568 2.45132446 -0.01008606 C4.16448396 -0.01515311 5.87765333 -0.01749445 7.59082031 -0.01733398 C10.20915058 -0.01951673 12.82705703 -0.03766419 15.4453125 -0.05664062 C17.10937356 -0.05957535 18.77343662 -0.06155962 20.4375 -0.0625 C21.21991058 -0.06968552 22.00232117 -0.07687103 22.80844116 -0.08427429 C29.67691214 -0.05548486 29.67691214 -0.05548486 32.8515625 2.16796875 C35.14595256 5.15067582 35.18321571 8.38801919 35.41015625 12.0703125 C34.488239 15.53233742 32.61605844 16.95390069 29.8515625 19.16796875 C26.96822828 19.8703861 24.18237879 19.82308466 21.2265625 19.76171875 C20.4020459 19.76175903 19.5775293 19.76179932 18.72802734 19.76184082 C16.98983105 19.7564943 15.25163467 19.73894846 13.51367188 19.70996094 C10.85992197 19.66810061 8.20871202 19.66889535 5.5546875 19.67578125 C3.86196161 19.66528782 2.16924875 19.65234889 0.4765625 19.63671875 C-0.31314941 19.63651733 -1.10286133 19.63631592 -1.91650391 19.6361084 C-6.48846043 19.53836414 -9.53523636 19.04026067 -13.1484375 16.16796875 C-15.50929872 12.62667691 -15.72113328 11.34046657 -15.1484375 7.16796875 C-11.03635725 0.56418189 -7.33391892 0.01037735 0 0 Z " fill="#C374B8" transform="translate(58.1484375,245.83203125)"/>
<path d="M0 0 C62.04 0 124.08 0 188 0 C188 1.32 188 2.64 188 4 C125.96 4 63.92 4 0 4 C0 2.68 0 1.36 0 0 Z " fill="#13CADF" transform="translate(238,207)"/>
<path d="M0 0 C62.04 0 124.08 0 188 0 C188 1.32 188 2.64 188 4 C125.96 4 63.92 4 0 4 C0 2.68 0 1.36 0 0 Z " fill="#4BD5E5" transform="translate(238,203)"/>
<path d="M0 0 C1.18916016 -0.02900391 2.37832031 -0.05800781 3.60351562 -0.08789062 C4.75142578 -0.09626953 5.89933594 -0.10464844 7.08203125 -0.11328125 C8.13237549 -0.12786377 9.18271973 -0.14244629 10.26489258 -0.1574707 C13.90916875 0.42854814 15.55523981 1.77983725 18.1875 4.3125 C19.73774464 7.41298928 19.47742015 9.89144218 19.1875 13.3125 C17.39187595 16.06579021 16.13495078 17.83877461 13.1875 19.3125 C8.92319552 19.63701599 4.65011803 19.63701551 0.375 19.6875 C-0.81416016 19.72488281 -2.00332031 19.76226562 -3.22851562 19.80078125 C-11.99837568 19.88941543 -11.99837568 19.88941543 -16.0703125 17.00390625 C-18.29025626 13.57444156 -18.88430352 11.40530055 -18.8125 7.3125 C-14.18531359 -1.30364021 -8.96457223 0.07217852 0 0 Z " fill="#5DD0A0" transform="translate(165.8125,89.6875)"/>
<path d="M0 0 C1.71219727 -0.0309375 1.71219727 -0.0309375 3.45898438 -0.0625 C4.56177734 -0.06765625 5.66457031 -0.0728125 6.80078125 -0.078125 C7.80923096 -0.0874707 8.81768066 -0.09681641 9.85668945 -0.10644531 C13.17771569 0.31172617 15.00773763 1.270831 17.6875 3.25 C19.82248775 6.45248163 19.96144539 7.06000694 19.625 10.6875 C19.57214844 11.44933594 19.51929688 12.21117188 19.46484375 12.99609375 C18.33702467 16.26620233 16.53288894 17.34496332 13.6875 19.25 C10.8125 19.76757812 10.8125 19.76757812 7.6875 19.78125 C6.553125 19.78640625 5.41875 19.7915625 4.25 19.796875 C3.074375 19.78140625 1.89875 19.7659375 0.6875 19.75 C-1.0759375 19.77320313 -1.0759375 19.77320313 -2.875 19.796875 C-4.009375 19.79171875 -5.14375 19.7865625 -6.3125 19.78125 C-7.859375 19.77448242 -7.859375 19.77448242 -9.4375 19.76757812 C-13.02531836 19.12167333 -14.71452485 17.75886177 -17.3125 15.25 C-18.47362464 12.25890012 -18.61919831 9.43625468 -18.3125 6.25 C-13.75613291 -1.29157312 -8.01753399 0.03585258 0 0 Z " fill="#FED56A" transform="translate(113.3125,89.75)"/>
<path d="M0 0 C1.71219727 -0.0309375 1.71219727 -0.0309375 3.45898438 -0.0625 C4.56177734 -0.06765625 5.66457031 -0.0728125 6.80078125 -0.078125 C7.80923096 -0.0874707 8.81768066 -0.09681641 9.85668945 -0.10644531 C13.80202115 0.39033643 16.5954097 1.86006689 19.0625 5 C20.00447802 8.39112087 19.53502199 10.85991203 18.6875 14.25 C16.79638889 16.5681362 15.34921969 17.91914015 12.6875 19.25 C8.58945531 19.54695976 4.4825376 19.52806005 0.375 19.5625 C-0.76646484 19.59150391 -1.90792969 19.62050781 -3.08398438 19.65039062 C-11.52047241 19.71449018 -11.52047241 19.71449018 -15.54296875 17.35546875 C-18.66267235 13.64350355 -18.72147589 11.07591547 -18.3125 6.25 C-13.4614545 -1.18826977 -8.2102839 0.03671452 0 0 Z " fill="#ED50A0" transform="translate(61.3125,89.75)"/>
<path d="M0 0 C0.89396484 -0.01224609 1.78792969 -0.02449219 2.70898438 -0.03710938 C8.18022694 -0.04929477 12.3443706 0.12505971 16.84375 3.5390625 C18.40074371 5.6449963 18.52693796 6.95758032 18.5625 9.5625 C18.5934375 10.31273437 18.624375 11.06296875 18.65625 11.8359375 C17.67678453 15.71513625 16.38650448 16.91213979 13.0625 19.1875 C8.71767521 19.90806022 4.45637508 19.83913014 0.0625 19.75 C-1.113125 19.76095703 -2.28875 19.77191406 -3.5 19.78320312 C-13.21314329 19.70042065 -13.21314329 19.70042065 -17.9375 15.1875 C-19.67772336 11.70705327 -18.81930814 7.88431106 -17.9375 4.1875 C-13.34082295 -0.88469537 -6.31262239 0.00453167 0 0 Z " fill="#BE58A0" transform="translate(61.9375,376.8125)"/>
<path d="M0 0 C1.49080078 -0.0309375 1.49080078 -0.0309375 3.01171875 -0.0625 C12.15893599 -0.11148108 12.15893599 -0.11148108 16.125 3.25 C18.4735228 6.14651146 19.13901228 7.56339817 19.0625 11.3125 C17.99860528 14.64603679 16.80931944 16.05373864 14.125 18.25 C10.04177778 20.29161111 4.80027192 19.47906579 0.3125 19.5 C-1.3281543 19.5309375 -1.3281543 19.5309375 -3.00195312 19.5625 C-4.5884668 19.57023437 -4.5884668 19.57023437 -6.20703125 19.578125 C-7.17358643 19.5874707 -8.1401416 19.59681641 -9.13598633 19.60644531 C-12.38289366 19.18390456 -14.24176848 18.16622974 -16.875 16.25 C-18.61827413 13.31812987 -18.8893242 11.60094284 -18.75 8.1875 C-17.74066659 4.79902356 -16.62220111 3.43160088 -13.875 1.25 C-9.31219699 -0.27093434 -4.77955432 0.02460517 0 0 Z " fill="#C066AC" transform="translate(122.875,245.75)"/>
<path d="M0 0 C11.22 0.33 22.44 0.66 34 1 C34 3.64 34 6.28 34 9 C34.99 9.33 35.98 9.66 37 10 C12.91 10 -11.18 10 -36 10 C-35.01 9.67 -34.02 9.34 -33 9 C-33 6.69 -33 4.38 -33 2 C-22.11 2 -11.22 2 0 2 C0 1.34 0 0.68 0 0 Z " fill="#BEB4B2" transform="translate(331,363)"/>
<path d="M0 0 C2.31 0 4.62 0 7 0 C6.01 0.33 5.02 0.66 4 1 C4 6.61 4 12.22 4 18 C14.89 18 25.78 18 37 18 C37 18.99 37 19.98 37 21 C36.00556885 20.99476318 35.0111377 20.98952637 33.98657227 20.98413086 C30.30966079 20.96607959 26.63275325 20.95456754 22.95581055 20.94506836 C21.36205386 20.94002843 19.76830181 20.9331965 18.17456055 20.92456055 C15.88849747 20.91248001 13.60249533 20.90676845 11.31640625 20.90234375 C10.59973282 20.89718246 9.88305939 20.89202118 9.14466858 20.88670349 C7.42936328 20.88650737 5.71418734 20.93807993 4 21 C3.505 21.495 3.505 21.495 3 22 C0.55169574 22.08843793 -1.86820599 22.11528752 -4.31640625 22.09765625 C-5.04746078 22.0962413 -5.77851532 22.09482635 -6.53172302 22.09336853 C-8.87535632 22.08775408 -11.21889539 22.07519922 -13.5625 22.0625 C-15.14778508 22.05748686 -16.73307166 22.05292363 -18.31835938 22.04882812 C-22.2122761 22.03777997 -26.10612205 22.02050572 -30 22 C-30 20.68 -30 19.36 -30 18 C-19.11 18 -8.22 18 3 18 C3 12.39 3 6.78 3 1 C2.01 0.67 1.02 0.34 0 0 Z " fill="#DED0CE" transform="translate(328,343)"/>
<path d="M0 0 C1.12148438 0.00322266 2.24296875 0.00644531 3.3984375 0.00976562 C4.5740625 0.01814453 5.7496875 0.02652344 6.9609375 0.03515625 C8.14429687 0.03966797 9.32765625 0.04417969 10.546875 0.04882812 C13.47661257 0.06064158 16.40625022 0.07711367 19.3359375 0.09765625 C9.3359375 5.09765625 -0.6640625 10.09765625 -10.6640625 15.09765625 C-12.21430714 11.99716697 -11.95398265 9.51871407 -11.6640625 6.09765625 C-8.21072619 0.80254058 -6.13208583 -0.03097013 0 0 Z " fill="#E380C7" transform="translate(54.6640625,89.90234375)"/>
<path d="M0 0 C22.11 0 44.22 0 67 0 C67 0.66 67 1.32 67 2 C67.99 2.33 68.98 2.66 70 3 C45.91 3 21.82 3 -3 3 C-2.01 2.67 -1.02 2.34 0 2 C0 1.34 0 0.68 0 0 Z " fill="#888588" transform="translate(298,370)"/>
<path d="M0 0 C1.54010742 0.03383789 1.54010742 0.03383789 3.11132812 0.06835938 C5.6382179 0.12712425 8.16210255 0.20922151 10.6875 0.3125 C7.76787313 2.63330544 4.82536684 4.3606472 1.484375 6.01171875 C0.5046875 6.49833984 -0.475 6.98496094 -1.484375 7.48632812 C-3.00804687 8.2355957 -3.00804687 8.2355957 -4.5625 9 C-5.59375 9.51111328 -6.625 10.02222656 -7.6875 10.54882812 C-10.22739782 11.80701825 -12.76908991 13.06142921 -15.3125 14.3125 C-15.9725 13.6525 -16.6325 12.9925 -17.3125 12.3125 C-17.23695854 8.30880278 -16.73018342 5.92404492 -14.4609375 2.6015625 C-9.78138301 -0.80069424 -5.62552893 -0.23394714 0 0 Z " fill="#82DDA5" transform="translate(164.3125,89.6875)"/>
<path d="M0 0 C0.33 0.33 0.66 0.66 1 1 C0.85536962 4.832705 0.64541267 7.22632351 -1.84765625 10.21484375 C-6.58478887 12.89745788 -10.97238344 12.42766223 -16.3125 12.25 C-17.85260742 12.22292969 -17.85260742 12.22292969 -19.42382812 12.1953125 C-21.95017885 12.14831063 -24.47460469 12.08262272 -27 12 C-22.94733675 8.83643274 -18.63969764 6.61764291 -14.0625 4.3125 C-13.26392578 3.89677734 -12.46535156 3.48105469 -11.64257812 3.05273438 C-10.86462891 2.66021484 -10.08667969 2.26769531 -9.28515625 1.86328125 C-8.58269775 1.50532471 -7.88023926 1.14736816 -7.15649414 0.77856445 C-4.63479567 -0.13185063 -2.66202842 -0.20760366 0 0 Z " fill="#30C099" transform="translate(184,97)"/>
<path d="M0 0 C0.66 0.33 1.32 0.66 2 1 C1.67 1.66 1.34 2.32 1 3 C1.66 3 2.32 3 3 3 C2.63681592 9.41625207 2.63681592 9.41625207 0.125 11.71875 C-4.50803524 13.61829445 -8.86080134 13.31719526 -13.8125 13.1875 C-15.28106445 13.16719727 -15.28106445 13.16719727 -16.77929688 13.14648438 C-19.18676625 13.11125312 -21.59309564 13.06199265 -24 13 C-19.62425715 9.55699776 -14.83603986 7.23402845 -9.875 4.75 C-8.49634766 4.04230469 -8.49634766 4.04230469 -7.08984375 3.3203125 C-6.21199219 2.87945312 -5.33414063 2.43859375 -4.4296875 1.984375 C-3.62772949 1.57928711 -2.82577148 1.17419922 -1.99951172 0.75683594 C-1.33967285 0.50708008 -0.67983398 0.25732422 0 0 Z " fill="#F33289" transform="translate(77,96)"/>
<path d="M0 0 C-0.125 1.875 -0.125 1.875 -1 4 C-2.98 4.66 -4.96 5.32 -7 6 C5.87 6.495 5.87 6.495 19 7 C19 7.33 19 7.66 19 8 C13.50076251 8.07411371 8.00181521 8.12858464 2.50219727 8.16479492 C0.63105201 8.17988873 -1.24005783 8.20036589 -3.11108398 8.22631836 C-5.79940526 8.26267593 -8.48725913 8.27972015 -11.17578125 8.29296875 C-12.43217155 8.31619453 -12.43217155 8.31619453 -13.71394348 8.33988953 C-19.53112998 8.34157818 -19.53112998 8.34157818 -21.74504089 6.72871399 C-23 5 -23 5 -23 1 C-15.31068715 -0.06059488 -7.75493514 -0.09928082 0 0 Z " fill="#FB8E4D" transform="translate(449,343)"/>
<path d="M0 0 C1.18851562 0.00902344 2.37703125 0.01804688 3.6015625 0.02734375 C4.51679688 0.03894531 5.43203125 0.05054688 6.375 0.0625 C6.25 1.9375 6.25 1.9375 5.375 4.0625 C3.395 4.7225 1.415 5.3825 -0.625 6.0625 C7.295 6.3925 15.215 6.7225 23.375 7.0625 C23.375 7.3925 23.375 7.7225 23.375 8.0625 C18.17893014 8.16145826 12.98341002 8.23400993 7.78662109 8.28222656 C6.01927128 8.3023285 4.25198787 8.32961472 2.48486328 8.36425781 C-0.05713285 8.41284009 -2.59824896 8.43548226 -5.140625 8.453125 C-6.32365204 8.48409271 -6.32365204 8.48409271 -7.53057861 8.51568604 C-11.16548143 8.51716914 -13.20545909 8.37743905 -16.15527344 6.16308594 C-17.625 4.0625 -17.625 4.0625 -17.625 2.0625 C-16.68527344 1.97162109 -16.68527344 1.97162109 -15.7265625 1.87890625 C-14.50066406 1.75322266 -14.50066406 1.75322266 -13.25 1.625 C-12.43789063 1.54378906 -11.62578125 1.46257812 -10.7890625 1.37890625 C-1.27268603 -0.01247731 -1.27268603 -0.01247731 0 0 Z " fill="#F39256" transform="translate(443.625,219.9375)"/>
<path d="M0 0 C-1.1875 2.4375 -1.1875 2.4375 -3 5 C-4.65 5.33 -6.3 5.66 -8 6 C0.25 6.33 8.5 6.66 17 7 C17 7.33 17 7.66 17 8 C11.78557724 8.0494186 6.57129066 8.08572831 1.35668945 8.10986328 C-0.41742324 8.11992411 -2.19151935 8.13357422 -3.96557617 8.15087891 C-6.51485284 8.17512378 -9.06391037 8.18648218 -11.61328125 8.1953125 C-12.80405022 8.21079636 -12.80405022 8.21079636 -14.01887512 8.22659302 C-17.88223043 8.2273811 -19.70839446 8.19440369 -23 6 C-23 4.68 -23 3.36 -23 2 C-22.01257813 1.93941406 -21.02515625 1.87882812 -20.0078125 1.81640625 C-18.72648438 1.73261719 -17.44515625 1.64882813 -16.125 1.5625 C-14.84882813 1.48128906 -13.57265625 1.40007812 -12.2578125 1.31640625 C-7.93315284 0.89638535 -4.51711749 -0.08365032 0 0 Z " fill="#F79855" transform="translate(216,343)"/>
<path d="M0 0 C0.83595703 0.00451172 1.67191406 0.00902344 2.53320312 0.01367188 C4.58466649 0.02539452 6.63609273 0.04332797 8.6875 0.0625 C8.35058594 1.9543457 8.35058594 1.9543457 7.6875 4.0625 C3.26772447 6.99357868 -0.32810799 7.44739053 -5.5625 7.375 C-7.39554688 7.36919922 -7.39554688 7.36919922 -9.265625 7.36328125 C-12.3125 7.0625 -12.3125 7.0625 -14.3125 5.0625 C-14.3125 3.7425 -14.3125 2.4225 -14.3125 1.0625 C-9.54157044 -0.17152862 -4.88780554 -0.05015112 0 0 Z " fill="#FEB951" transform="translate(207.3125,219.9375)"/>
<path d="M0 0 C5.19609458 -0.07421905 10.39187983 -0.12863446 15.58837891 -0.16479492 C17.35568619 -0.17987102 19.12295614 -0.20033522 20.89013672 -0.22631836 C23.43205995 -0.26275402 25.97348806 -0.27973794 28.515625 -0.29296875 C29.30430969 -0.30845261 30.09299438 -0.32393646 30.90557861 -0.33988953 C34.22920222 -0.3409066 36.58841197 -0.22664347 39.53027344 1.39331055 C41 3 41 3 41 5 C40.34 5 39.68 5 39 5 C39.01160156 5.73605469 39.02320313 6.47210938 39.03515625 7.23046875 C39.04417969 8.20628906 39.05320312 9.18210938 39.0625 10.1875 C39.07410156 11.15042969 39.08570313 12.11335937 39.09765625 13.10546875 C39.00353596 15.89519403 38.79195554 18.32243604 38 21 C35.4375 22.3125 35.4375 22.3125 33 23 C33 20.03 33 17.06 33 14 C33.66 14 34.32 14 35 14 C35 9.71 35 5.42 35 1 C23.45 1 11.9 1 0 1 C0 0.67 0 0.34 0 0 Z " fill="#F8B472" transform="translate(430,182)"/>
<path d="M0 0 C4.875 0.875 4.875 0.875 6 2 C6.1328125 3.8125 6.1328125 3.8125 6.125 6 C6.12757813 6.721875 6.13015625 7.44375 6.1328125 8.1875 C6 10 6 10 5 11 C4.60545777 12.84599688 4.25823134 14.70225822 3.9375 16.5625 C3.76089844 17.57441406 3.58429688 18.58632813 3.40234375 19.62890625 C3.26957031 20.41136719 3.13679687 21.19382812 3 22 C2.01 22.33 1.02 22.66 0 23 C-1.97679796 17.42835834 -2.04785979 13.35954451 -1.125 7.5625 C-1.02058594 6.83095703 -0.91617188 6.09941406 -0.80859375 5.34570312 C-0.55209621 3.5618793 -0.27788741 1.78061703 0 0 Z " fill="#FEB751" transform="translate(231,306)"/>
<path d="M0 0 C4.875 0.875 4.875 0.875 6 2 C6.1328125 3.8125 6.1328125 3.8125 6.125 6 C6.12757813 6.721875 6.13015625 7.44375 6.1328125 8.1875 C6 10 6 10 5 11 C4.60545777 12.84599688 4.25823134 14.70225822 3.9375 16.5625 C3.76089844 17.57441406 3.58429688 18.58632812 3.40234375 19.62890625 C3.26957031 20.41136719 3.13679687 21.19382813 3 22 C2.01 22.33 1.02 22.66 0 23 C-1.97679796 17.42835834 -2.04785979 13.35954451 -1.125 7.5625 C-1.02058594 6.83095703 -0.91617188 6.09941406 -0.80859375 5.34570312 C-0.55209621 3.5618793 -0.27788741 1.78061703 0 0 Z " fill="#FEB751" transform="translate(231,183)"/>
<path d="M0 0 C-2.36649526 2.6612752 -4.77133346 4.04856907 -7.96484375 5.59375 C-9.41213867 6.30337891 -9.41213867 6.30337891 -10.88867188 7.02734375 C-11.89478516 7.51332031 -12.90089844 7.99929687 -13.9375 8.5 C-15.92761323 9.46498095 -17.91596687 10.43360115 -19.90234375 11.40625 C-20.78398193 11.83228516 -21.66562012 12.25832031 -22.57397461 12.69726562 C-24.91154284 13.95250001 -26.92694273 15.35046408 -29 17 C-29.66 15.68 -30.32 14.36 -31 13 C-27.95888251 11.39479066 -24.91700767 9.79102164 -21.875 8.1875 C-21.0190625 7.73568359 -20.163125 7.28386719 -19.28125 6.81835938 C-17.60994783 5.9377117 -15.93729069 5.05962995 -14.26318359 4.18432617 C-12.36924724 3.19322744 -10.48081244 2.19162497 -8.59375 1.1875 C-5.55278686 -0.20474819 -3.3071487 -0.23622491 0 0 Z " fill="#EA61AE" transform="translate(76,91)"/>
<path d="M0 0 C0.763125 0.20625 1.52625 0.4125 2.3125 0.625 C2.6425 1.945 2.9725 3.265 3.3125 4.625 C2.43239258 4.57537109 1.55228516 4.52574219 0.64550781 4.47460938 C-2.95048242 4.63686619 -4.8549344 5.37139412 -8.015625 7.03125 C-9.46195313 7.77568359 -9.46195313 7.77568359 -10.9375 8.53515625 C-12.4225 9.32212891 -12.4225 9.32212891 -13.9375 10.125 C-15.92016064 11.15954216 -17.9044554 12.19096062 -19.890625 13.21875 C-21.20015137 13.91000977 -21.20015137 13.91000977 -22.53613281 14.61523438 C-24.6875 15.625 -24.6875 15.625 -26.6875 15.625 C-25.26952148 12.06709445 -23.83617644 10.82367242 -20.44140625 9.1171875 C-19.18553711 8.47330078 -19.18553711 8.47330078 -17.90429688 7.81640625 C-17.02837891 7.38199219 -16.15246094 6.94757813 -15.25 6.5 C-13.52151393 5.62362052 -11.79362406 4.7460639 -10.06640625 3.8671875 C-8.91507202 3.29266846 -8.91507202 3.29266846 -7.74047852 2.70654297 C-2.05787652 -0.28714556 -2.05787652 -0.28714556 0 0 Z " fill="#49C99D" transform="translate(181.6875,93.375)"/>
<path d="M0 0 C1.65 0.33 3.3 0.66 5 1 C5.33 1.99 5.66 2.98 6 4 C5.34 4 4.68 4 4 4 C4.01160156 4.73605469 4.02320313 5.47210938 4.03515625 6.23046875 C4.04417969 7.20628906 4.05320312 8.18210937 4.0625 9.1875 C4.07410156 10.15042969 4.08570313 11.11335938 4.09765625 12.10546875 C3.91793366 17.43244644 3.91793366 17.43244644 3 20 C0.4375 21.3125 0.4375 21.3125 -2 22 C-1.5140207 14.6379306 -1.02325928 7.30899482 0 0 Z " fill="#FDA947" transform="translate(465,306)"/>
<path d="M0 0 C-0.33 0.99 -0.66 1.98 -1 3 C-3.54112232 3.33801152 -6.08276746 3.67053379 -8.625 4 C-9.33785156 4.09539062 -10.05070312 4.19078125 -10.78515625 4.2890625 C-14.88821609 4.81606101 -18.85245742 5.10466984 -23 5 C-23 3.68 -23 2.36 -23 1 C-15.31068715 -0.06059488 -7.75493514 -0.09928082 0 0 Z " fill="#FEBD55" transform="translate(449,343)"/>
<path d="M0 0 C0.33 2.31 0.66 4.62 1 7 C0.67 6.01 0.34 5.02 0 4 C-1.32 4.33 -2.64 4.66 -4 5 C-3.67 4.01 -3.34 3.02 -3 2 C-3.71655762 2.36351563 -4.43311523 2.72703125 -5.17138672 3.1015625 C-8.40384658 4.73851669 -11.63936636 6.36932879 -14.875 8 C-16.00292969 8.57234375 -17.13085938 9.1446875 -18.29296875 9.734375 C-19.36933594 10.27578125 -20.44570313 10.8171875 -21.5546875 11.375 C-22.54968262 11.87773438 -23.54467773 12.38046875 -24.56982422 12.8984375 C-27 14 -27 14 -29 14 C-29 13.34 -29 12.68 -29 12 C-25.35856844 10.11752317 -21.71071834 8.24820514 -18.05639648 6.39086914 C-16.81399758 5.75709152 -15.57341674 5.1197368 -14.3347168 4.47875977 C-12.55478262 3.55849744 -10.76770675 2.65208974 -8.98046875 1.74609375 C-7.90692139 1.19622803 -6.83337402 0.6463623 -5.72729492 0.07983398 C-3 -1 -3 -1 0 0 Z " fill="#F24193" transform="translate(80,95)"/>
<path d="M0 0 C-0.99 0.33 -1.98 0.66 -3 1 C-8.20479277 3.01039844 -13.17952987 5.42284617 -18.1875 7.875 C-19.10208984 8.30941406 -20.01667969 8.74382812 -20.95898438 9.19140625 C-21.83232422 9.62066406 -22.70566406 10.04992187 -23.60546875 10.4921875 C-24.40106201 10.87745605 -25.19665527 11.26272461 -26.01635742 11.65966797 C-28.29110558 13.1966978 -29.00663257 14.47562298 -30 17 C-30.66 16.34 -31.32 15.68 -32 15 C-32 14.01 -32 13.02 -32 12 C-28.41757195 10.10954974 -24.8247514 8.24073507 -21.22119141 6.39086914 C-19.99813419 5.75928511 -18.77801602 5.12197428 -17.56103516 4.47875977 C-15.80643601 3.55268147 -14.04001169 2.64911911 -12.2734375 1.74609375 C-11.21560059 1.19622803 -10.15776367 0.6463623 -9.06787109 0.07983398 C-5.56152531 -1.15433499 -3.55815238 -0.91635248 0 0 Z " fill="#6ED6A3" transform="translate(181,91)"/>
<path d="M0 0 C-0.25335763 3.12474407 -0.59087492 4.60451242 -2.875 6.8125 C-7.541944 8.58593872 -12.06392865 8.23340442 -17 8 C-14.12071475 5.72195761 -11.2169671 3.95965316 -7.9375 2.3125 C-7.08027344 1.87550781 -6.22304687 1.43851562 -5.33984375 0.98828125 C-3 0 -3 0 0 0 Z " fill="#FA1671" transform="translate(80,101)"/>
<path d="M0 0 C-2.89585905 2.29648357 -5.8172031 4.04347557 -9.125 5.6875 C-10.42824219 6.34298828 -10.42824219 6.34298828 -11.7578125 7.01171875 C-14 8 -14 8 -16 8 C-16.33 9.32 -16.66 10.64 -17 12 C-16.76509667 8.00664332 -16.29297281 5.45899074 -14.125 2.0625 C-9.54048076 -0.9632827 -5.34128038 -0.42094154 0 0 Z " fill="#9CE5AA" transform="translate(164,90)"/>
<path d="M0 0 C-3.32486381 2.74054368 -6.83057886 4.42376049 -10.75 6.1875 C-11.92046875 6.71730469 -13.0909375 7.24710937 -14.296875 7.79296875 C-15.18890625 8.19128906 -16.0809375 8.58960937 -17 9 C-16.48330849 5.82076548 -16.19319866 4.23827835 -14.125 1.6875 C-9.50314881 -0.80829964 -5.14613143 -0.32444962 0 0 Z " fill="#DE95D7" transform="translate(60,90)"/>
<path d="M0 0 C-0.31769236 2.93865433 -0.54252049 4.55099234 -2.6875 6.65625 C-5.57820151 8.33598196 -7.43197973 8.30600072 -10.75 8.1875 C-11.73484375 8.16042969 -12.7196875 8.13335937 -13.734375 8.10546875 C-14.48203125 8.07066406 -15.2296875 8.03585938 -16 8 C-13.10414095 5.70351643 -10.1827969 3.95652443 -6.875 2.3125 C-5.57175781 1.65701172 -5.57175781 1.65701172 -4.2421875 0.98828125 C-2 0 -2 0 0 0 Z " fill="#18B796" transform="translate(184,101)"/>
<path d="M0 0 C-2 3 -2 3 -4.57421875 3.73046875 C-19.23472357 5.88263822 -19.23472357 5.88263822 -23 4 C-23 3.34 -23 2.68 -23 2 C-22.01257813 1.93941406 -21.02515625 1.87882812 -20.0078125 1.81640625 C-18.72648438 1.73261719 -17.44515625 1.64882813 -16.125 1.5625 C-14.84882813 1.48128906 -13.57265625 1.40007812 -12.2578125 1.31640625 C-7.93315284 0.89638535 -4.51711749 -0.08365032 0 0 Z " fill="#FEB34D" transform="translate(216,343)"/>
<path d="M0 0 C2.01822917 0.06510417 4.03645833 0.13020833 6.0546875 0.1953125 C-3.9453125 5.1953125 -13.9453125 10.1953125 -23.9453125 15.1953125 C-23.9453125 14.2053125 -23.9453125 13.2153125 -23.9453125 12.1953125 C-23.34992676 11.90285645 -22.75454102 11.61040039 -22.14111328 11.30908203 C-19.44876388 9.98367433 -16.75952283 8.65207696 -14.0703125 7.3203125 C-13.13316406 6.86011719 -12.19601563 6.39992188 -11.23046875 5.92578125 C-10.33457031 5.48105469 -9.43867187 5.03632812 -8.515625 4.578125 C-7.27449951 3.96541748 -7.27449951 3.96541748 -6.00830078 3.34033203 C-3.67829377 2.0471092 -2.67730291 0.26880551 0 0 Z " fill="#E671BB" transform="translate(67.9453125,89.8046875)"/>
<path d="M0 0 C0.66 0.33 1.32 0.66 2 1 C-2.11820688 5.11820688 -6.55379537 5.29469061 -12.1875 5.3125 C-13.41855469 5.32925781 -14.64960938 5.34601563 -15.91796875 5.36328125 C-17.44357422 5.18345703 -17.44357422 5.18345703 -19 5 C-19.66 4.01 -20.32 3.02 -21 2 C-19.73542969 1.93941406 -18.47085938 1.87882813 -17.16796875 1.81640625 C-15.50780129 1.73199096 -13.84764563 1.64734345 -12.1875 1.5625 C-11.35412109 1.52318359 -10.52074219 1.48386719 -9.66210938 1.44335938 C-8.85966797 1.40146484 -8.05722656 1.35957031 -7.23046875 1.31640625 C-6.12288208 1.26141968 -6.12288208 1.26141968 -4.99291992 1.20532227 C-2.792505 1.05157859 -2.792505 1.05157859 0 0 Z " fill="#FEA240" transform="translate(214,222)"/>
<path d="M0 0 C1.32 0.66 2.64 1.32 4 2 C4 2.66 4 3.32 4 4 C3.34 4 2.68 4 2 4 C2.01160156 4.73605469 2.02320313 5.47210938 2.03515625 6.23046875 C2.04417969 7.20628906 2.05320312 8.18210938 2.0625 9.1875 C2.07410156 10.15042969 2.08570313 11.11335937 2.09765625 12.10546875 C2.00486622 14.85576513 1.62111685 17.32479591 1 20 C0.34 20 -0.32 20 -1 20 C-2.22938396 15.57249834 -1.75030185 11.65180393 -1.0625 7.1875 C-0.96259766 6.49462891 -0.86269531 5.80175781 -0.75976562 5.08789062 C-0.51398412 3.39082787 -0.25801848 1.69524541 0 0 Z " fill="#FDA948" transform="translate(467,183)"/>
<path d="M0 0 C1.18851562 0.00902344 2.37703125 0.01804688 3.6015625 0.02734375 C4.51679688 0.03894531 5.43203125 0.05054688 6.375 0.0625 C5.385 1.5475 5.385 1.5475 4.375 3.0625 C2.12841797 3.49487305 2.12841797 3.49487305 -0.6328125 3.57421875 C-2.11201172 3.62739258 -2.11201172 3.62739258 -3.62109375 3.68164062 C-4.65363281 3.70419922 -5.68617188 3.72675781 -6.75 3.75 C-7.79027344 3.78416016 -8.83054687 3.81832031 -9.90234375 3.85351562 C-12.47645507 3.93617058 -15.05021829 4.00526155 -17.625 4.0625 C-17.625 3.4025 -17.625 2.7425 -17.625 2.0625 C-16.68527344 1.97162109 -16.68527344 1.97162109 -15.7265625 1.87890625 C-14.50066406 1.75322266 -14.50066406 1.75322266 -13.25 1.625 C-12.43789063 1.54378906 -11.62578125 1.46257812 -10.7890625 1.37890625 C-1.27268603 -0.01247731 -1.27268603 -0.01247731 0 0 Z " fill="#FEB851" transform="translate(443.625,219.9375)"/>
<path d="M0 0 C0.99 0.33 1.98 0.66 3 1 C3.09765625 7.15234375 3.09765625 7.15234375 3 9 C2.67 9.33 2.34 9.66 2 10 C1.60545777 11.84599688 1.25823134 13.70225822 0.9375 15.5625 C0.67259766 17.08037109 0.67259766 17.08037109 0.40234375 18.62890625 C0.26957031 19.41136719 0.13679687 20.19382813 0 21 C-0.66 21 -1.32 21 -2 21 C-1.01 10.605 -1.01 10.605 0 0 Z " fill="#FDA442" transform="translate(234,184)"/>
<path d="M0 0 C0.99 0.66 1.98 1.32 3 2 C3.47114738 4.7427508 3.17805784 7.19558897 3 10 C2.67 10.33 2.34 10.66 2 11 C1.60545777 12.84599688 1.25823134 14.70225822 0.9375 16.5625 C0.67259766 18.08037109 0.67259766 18.08037109 0.40234375 19.62890625 C0.26957031 20.41136719 0.13679687 21.19382812 0 22 C-0.66 22 -1.32 22 -2 22 C-1.34 14.74 -0.68 7.48 0 0 Z " fill="#FDA443" transform="translate(234,306)"/>
<path d="M0 0 C0 0.66 0 1.32 0 2 C-2.72379681 3.34538144 -5.45313508 4.67641535 -8.1875 6 C-8.95642578 6.3815625 -9.72535156 6.763125 -10.51757812 7.15625 C-17.60599841 10.56355932 -17.60599841 10.56355932 -22 10 C-18.85881272 7.47798906 -15.60307137 5.66752801 -12 3.875 C-10.453125 3.09769531 -10.453125 3.09769531 -8.875 2.3046875 C-5.83314164 0.92427895 -3.33799377 0 0 0 Z " fill="#F7217C" transform="translate(80,99)"/>
<path d="M0 0 C0.66 0 1.32 0 2 0 C2.09915147 5.17791028 2.06410597 10.33296613 1.6875 15.5 C1.62949219 16.3146875 1.57148438 17.129375 1.51171875 17.96875 C1 20 1 20 -2 22 C-1.5140207 14.6379306 -1.02325928 7.30899482 0 0 Z " fill="#FEBB54" transform="translate(465,306)"/>
<path d="M0 0 C0.66 0.33 1.32 0.66 2 1 C1.67 1.66 1.34 2.32 1 3 C-1.58301933 3.48264029 -4.08156882 3.84340248 -6.6875 4.125 C-7.75000977 4.25455078 -7.75000977 4.25455078 -8.83398438 4.38671875 C-12.91092211 4.86104392 -16.88851005 5.09064702 -21 5 C-21 4.01 -21 3.02 -21 2 C-19.35451172 2.03480469 -19.35451172 2.03480469 -17.67578125 2.0703125 C-16.221361 2.08907921 -14.76693336 2.10727844 -13.3125 2.125 C-12.59126953 2.14175781 -11.87003906 2.15851563 -11.12695312 2.17578125 C-6.8972457 2.21440872 -3.84740867 1.69885578 0 0 Z " fill="#FEAE4D" transform="translate(447,343)"/>
<path d="M0 0 C-0.33 0.66 -0.66 1.32 -1 2 C-5.62 2 -10.24 2 -15 2 C-15.33 1.34 -15.66 0.68 -16 0 C-14.27185839 -0.19672365 -12.54240803 -0.38196799 -10.8125 -0.5625 C-9.84957031 -0.66691406 -8.88664062 -0.77132812 -7.89453125 -0.87890625 C-5.05766623 -0.99758751 -2.74576329 -0.67765639 0 0 Z " fill="#FD9E3F" transform="translate(443,225)"/>
<path d="M0 0 C0 3 0 3 -2 6 C-5.625 6.1875 -5.625 6.1875 -9 6 C-6.45543849 3.03134491 -3.51005335 1.6380249 0 0 Z " fill="#FC0A69" transform="translate(76,103)"/>
<path d="M0 0 C-2.52956528 3.0916909 -5.22454612 3.90931332 -9 5 C-5.28508772 -1.58552632 -5.28508772 -1.58552632 0 0 Z " fill="#ACEAAF" transform="translate(157,91)"/>
</svg>
